<svg width="712" height="17" viewBox="0 0 712 17" fill="none" xmlns="http://www.w3.org/2000/svg">
<g filter="url(#filter0_d_193_501)">
<path d="M-3 0.75C-3 0.335786 -2.66421 0 -2.25 0C-1.83579 0 -1.5 0.335786 -1.5 0.75V4.25C-1.5 4.66421 -1.83579 5 -2.25 5C-2.66421 5 -3 4.66421 -3 4.25V0.75Z" fill="white"/>
<path d="M0.5 0.75C0.5 0.335786 0.835786 0 1.25 0C1.66421 0 2 0.335786 2 0.75V4.25C2 4.66421 1.66421 5 1.25 5C0.835786 5 0.5 4.66421 0.5 4.25V0.75Z" fill="white"/>
<path d="M4 0.75C4 0.335786 4.33579 0 4.75 0C5.16421 0 5.5 0.335786 5.5 0.75V4.25C5.5 4.66421 5.16421 5 4.75 5C4.33579 5 4 4.66421 4 4.25V0.75Z" fill="white"/>
<path d="M7.5 0.75C7.5 0.335786 7.83579 0 8.25 0C8.66421 0 9 0.335786 9 0.75V4.25C9 4.66421 8.66421 5 8.25 5C7.83579 5 7.5 4.66421 7.5 4.25V0.75Z" fill="white"/>
<path d="M11 0.75C11 0.335786 11.3358 0 11.75 0C12.1642 0 12.5 0.335786 12.5 0.75V4.25C12.5 4.66421 12.1642 5 11.75 5C11.3358 5 11 4.66421 11 4.25V0.75Z" fill="white"/>
<path d="M14.5 0.75C14.5 0.335786 14.8358 0 15.25 0C15.6642 0 16 0.335786 16 0.75V4.25C16 4.66421 15.6642 5 15.25 5C14.8358 5 14.5 4.66421 14.5 4.25V0.75Z" fill="white"/>
<path d="M18 0.75C18 0.335786 18.3358 0 18.75 0C19.1642 0 19.5 0.335786 19.5 0.75V4.25C19.5 4.66421 19.1642 5 18.75 5C18.3358 5 18 4.66421 18 4.25V0.75Z" fill="white"/>
<path d="M21.5 0.75C21.5 0.335786 21.8358 0 22.25 0C22.6642 0 23 0.335786 23 0.75V4.25C23 4.66421 22.6642 5 22.25 5C21.8358 5 21.5 4.66421 21.5 4.25V0.75Z" fill="white"/>
<path d="M25 0.75C25 0.335786 25.3358 0 25.75 0C26.1642 0 26.5 0.335786 26.5 0.75V4.25C26.5 4.66421 26.1642 5 25.75 5C25.3358 5 25 4.66421 25 4.25V0.75Z" fill="white"/>
<path d="M28.5 0.75C28.5 0.335786 28.8358 0 29.25 0C29.6642 0 30 0.335786 30 0.75V4.25C30 4.66421 29.6642 5 29.25 5C28.8358 5 28.5 4.66421 28.5 4.25V0.75Z" fill="white"/>
<path d="M32 0.75C32 0.335786 32.3358 0 32.75 0C33.1642 0 33.5 0.335786 33.5 0.75V4.25C33.5 4.66421 33.1642 5 32.75 5C32.3358 5 32 4.66421 32 4.25V0.75Z" fill="white"/>
<path d="M35.5 0.75C35.5 0.335786 35.8358 0 36.25 0C36.6642 0 37 0.335786 37 0.75V4.25C37 4.66421 36.6642 5 36.25 5C35.8358 5 35.5 4.66421 35.5 4.25V0.75Z" fill="white"/>
<path d="M39 0.75C39 0.335786 39.3358 0 39.75 0C40.1642 0 40.5 0.335786 40.5 0.75V4.25C40.5 4.66421 40.1642 5 39.75 5C39.3358 5 39 4.66421 39 4.25V0.75Z" fill="white"/>
<path d="M42.5 0.75C42.5 0.335786 42.8358 0 43.25 0C43.6642 0 44 0.335786 44 0.75V4.25C44 4.66421 43.6642 5 43.25 5C42.8358 5 42.5 4.66421 42.5 4.25V0.75Z" fill="white"/>
<path d="M46 0.75C46 0.335786 46.3358 0 46.75 0C47.1642 0 47.5 0.335786 47.5 0.75V4.25C47.5 4.66421 47.1642 5 46.75 5C46.3358 5 46 4.66421 46 4.25V0.75Z" fill="white"/>
<path d="M49.5 0.75C49.5 0.335786 49.8358 0 50.25 0C50.6642 0 51 0.335786 51 0.75V4.25C51 4.66421 50.6642 5 50.25 5C49.8358 5 49.5 4.66421 49.5 4.25V0.75Z" fill="white"/>
<path d="M53 0.75C53 0.335786 53.3358 0 53.75 0C54.1642 0 54.5 0.335786 54.5 0.75V4.25C54.5 4.66421 54.1642 5 53.75 5C53.3358 5 53 4.66421 53 4.25V0.75Z" fill="white"/>
<path d="M56.5 0.75C56.5 0.335786 56.8358 0 57.25 0C57.6642 0 58 0.335786 58 0.75V4.25C58 4.66421 57.6642 5 57.25 5C56.8358 5 56.5 4.66421 56.5 4.25V0.75Z" fill="white"/>
<path d="M60 0.75C60 0.335786 60.3358 0 60.75 0C61.1642 0 61.5 0.335786 61.5 0.75V4.25C61.5 4.66421 61.1642 5 60.75 5C60.3358 5 60 4.66421 60 4.25V0.75Z" fill="white"/>
<path d="M63.5 0.75C63.5 0.335786 63.8358 0 64.25 0C64.6642 0 65 0.335786 65 0.75V4.25C65 4.66421 64.6642 5 64.25 5C63.8358 5 63.5 4.66421 63.5 4.25V0.75Z" fill="white"/>
<path d="M67 0.75C67 0.335786 67.3358 0 67.75 0C68.1642 0 68.5 0.335786 68.5 0.75V4.25C68.5 4.66421 68.1642 5 67.75 5C67.3358 5 67 4.66421 67 4.25V0.75Z" fill="white"/>
<path d="M70.5 0.75C70.5 0.335786 70.8358 0 71.25 0C71.6642 0 72 0.335786 72 0.75V4.25C72 4.66421 71.6642 5 71.25 5C70.8358 5 70.5 4.66421 70.5 4.25V0.75Z" fill="white"/>
<path d="M74 0.75C74 0.335786 74.3358 0 74.75 0C75.1642 0 75.5 0.335786 75.5 0.75V4.25C75.5 4.66421 75.1642 5 74.75 5C74.3358 5 74 4.66421 74 4.25V0.75Z" fill="white"/>
<path d="M77.5 0.75C77.5 0.335786 77.8358 0 78.25 0C78.6642 0 79 0.335786 79 0.75V4.25C79 4.66421 78.6642 5 78.25 5C77.8358 5 77.5 4.66421 77.5 4.25V0.75Z" fill="white"/>
<path d="M81 0.75C81 0.335786 81.3358 0 81.75 0C82.1642 0 82.5 0.335786 82.5 0.75V4.25C82.5 4.66421 82.1642 5 81.75 5C81.3358 5 81 4.66421 81 4.25V0.75Z" fill="white"/>
<path d="M84.5 0.75C84.5 0.335786 84.8358 0 85.25 0C85.6642 0 86 0.335786 86 0.75V4.25C86 4.66421 85.6642 5 85.25 5C84.8358 5 84.5 4.66421 84.5 4.25V0.75Z" fill="white"/>
<path d="M88 0.75C88 0.335786 88.3358 0 88.75 0C89.1642 0 89.5 0.335786 89.5 0.75V4.25C89.5 4.66421 89.1642 5 88.75 5C88.3358 5 88 4.66421 88 4.25V0.75Z" fill="white"/>
<path d="M91.5 0.75C91.5 0.335786 91.8358 0 92.25 0C92.6642 0 93 0.335786 93 0.75V4.25C93 4.66421 92.6642 5 92.25 5C91.8358 5 91.5 4.66421 91.5 4.25V0.75Z" fill="white"/>
<path d="M95 0.75C95 0.335786 95.3358 0 95.75 0C96.1642 0 96.5 0.335786 96.5 0.75V4.25C96.5 4.66421 96.1642 5 95.75 5C95.3358 5 95 4.66421 95 4.25V0.75Z" fill="white"/>
<path d="M98.5 0.75C98.5 0.335786 98.8358 0 99.25 0C99.6642 0 100 0.335786 100 0.75V4.25C100 4.66421 99.6642 5 99.25 5C98.8358 5 98.5 4.66421 98.5 4.25V0.75Z" fill="white"/>
<path d="M102 0.75C102 0.335786 102.336 0 102.75 0C103.164 0 103.5 0.335786 103.5 0.75V4.25C103.5 4.66421 103.164 5 102.75 5C102.336 5 102 4.66421 102 4.25V0.75Z" fill="white"/>
<path d="M105.5 0.75C105.5 0.335786 105.836 0 106.25 0C106.664 0 107 0.335786 107 0.75V4.25C107 4.66421 106.664 5 106.25 5C105.836 5 105.5 4.66421 105.5 4.25V0.75Z" fill="white"/>
<path d="M109 0.75C109 0.335786 109.336 0 109.75 0C110.164 0 110.5 0.335786 110.5 0.75V4.25C110.5 4.66421 110.164 5 109.75 5C109.336 5 109 4.66421 109 4.25V0.75Z" fill="white"/>
<path d="M112.5 0.75C112.5 0.335786 112.836 0 113.25 0C113.664 0 114 0.335786 114 0.75V4.25C114 4.66421 113.664 5 113.25 5C112.836 5 112.5 4.66421 112.5 4.25V0.75Z" fill="white"/>
<path d="M116 0.75C116 0.335786 116.336 0 116.75 0C117.164 0 117.5 0.335786 117.5 0.75V4.25C117.5 4.66421 117.164 5 116.75 5C116.336 5 116 4.66421 116 4.25V0.75Z" fill="white"/>
<path d="M119.5 0.75C119.5 0.335786 119.836 0 120.25 0C120.664 0 121 0.335786 121 0.75V4.25C121 4.66421 120.664 5 120.25 5C119.836 5 119.5 4.66421 119.5 4.25V0.75Z" fill="white"/>
<path d="M123 0.75C123 0.335786 123.336 0 123.75 0C124.164 0 124.5 0.335786 124.5 0.75V4.25C124.5 4.66421 124.164 5 123.75 5C123.336 5 123 4.66421 123 4.25V0.75Z" fill="white"/>
<path d="M126.5 0.75C126.5 0.335786 126.836 0 127.25 0C127.664 0 128 0.335786 128 0.75V4.25C128 4.66421 127.664 5 127.25 5C126.836 5 126.5 4.66421 126.5 4.25V0.75Z" fill="white"/>
<path d="M130 0.75C130 0.335786 130.336 0 130.75 0C131.164 0 131.5 0.335786 131.5 0.75V4.25C131.5 4.66421 131.164 5 130.75 5C130.336 5 130 4.66421 130 4.25V0.75Z" fill="white"/>
<path d="M133.5 0.75C133.5 0.335786 133.836 0 134.25 0C134.664 0 135 0.335786 135 0.75V4.25C135 4.66421 134.664 5 134.25 5C133.836 5 133.5 4.66421 133.5 4.25V0.75Z" fill="white"/>
<path d="M137 0.75C137 0.335786 137.336 0 137.75 0C138.164 0 138.5 0.335786 138.5 0.75V4.25C138.5 4.66421 138.164 5 137.75 5C137.336 5 137 4.66421 137 4.25V0.75Z" fill="white"/>
<path d="M140.5 0.75C140.5 0.335786 140.836 0 141.25 0C141.664 0 142 0.335786 142 0.75V4.25C142 4.66421 141.664 5 141.25 5C140.836 5 140.5 4.66421 140.5 4.25V0.75Z" fill="white"/>
<path d="M144 0.75C144 0.335786 144.336 0 144.75 0C145.164 0 145.5 0.335786 145.5 0.75V4.25C145.5 4.66421 145.164 5 144.75 5C144.336 5 144 4.66421 144 4.25V0.75Z" fill="white"/>
<path d="M147.5 0.75C147.5 0.335786 147.836 0 148.25 0C148.664 0 149 0.335786 149 0.75V4.25C149 4.66421 148.664 5 148.25 5C147.836 5 147.5 4.66421 147.5 4.25V0.75Z" fill="white"/>
<path d="M151 0.75C151 0.335786 151.336 0 151.75 0C152.164 0 152.5 0.335786 152.5 0.75V4.25C152.5 4.66421 152.164 5 151.75 5C151.336 5 151 4.66421 151 4.25V0.75Z" fill="white"/>
<path d="M154.5 0.75C154.5 0.335786 154.836 0 155.25 0C155.664 0 156 0.335786 156 0.75V4.25C156 4.66421 155.664 5 155.25 5C154.836 5 154.5 4.66421 154.5 4.25V0.75Z" fill="white"/>
<path d="M158 0.75C158 0.335786 158.336 0 158.75 0C159.164 0 159.5 0.335786 159.5 0.75V4.25C159.5 4.66421 159.164 5 158.75 5C158.336 5 158 4.66421 158 4.25V0.75Z" fill="white"/>
<path d="M161.5 0.75C161.5 0.335786 161.836 0 162.25 0C162.664 0 163 0.335786 163 0.75V4.25C163 4.66421 162.664 5 162.25 5C161.836 5 161.5 4.66421 161.5 4.25V0.75Z" fill="white"/>
<path d="M165 0.75C165 0.335786 165.336 0 165.75 0C166.164 0 166.5 0.335786 166.5 0.75V4.25C166.5 4.66421 166.164 5 165.75 5C165.336 5 165 4.66421 165 4.25V0.75Z" fill="white"/>
<path d="M168.5 0.75C168.5 0.335786 168.836 0 169.25 0C169.664 0 170 0.335786 170 0.75V4.25C170 4.66421 169.664 5 169.25 5C168.836 5 168.5 4.66421 168.5 4.25V0.75Z" fill="white"/>
<path d="M172 0.75C172 0.335786 172.336 0 172.75 0C173.164 0 173.5 0.335786 173.5 0.75V4.25C173.5 4.66421 173.164 5 172.75 5C172.336 5 172 4.66421 172 4.25V0.75Z" fill="white"/>
<path d="M175.5 0.75C175.5 0.335786 175.836 0 176.25 0C176.664 0 177 0.335786 177 0.75V4.25C177 4.66421 176.664 5 176.25 5C175.836 5 175.5 4.66421 175.5 4.25V0.75Z" fill="white"/>
<path d="M179 0.75C179 0.335786 179.336 0 179.75 0C180.164 0 180.5 0.335786 180.5 0.75V4.25C180.5 4.66421 180.164 5 179.75 5C179.336 5 179 4.66421 179 4.25V0.75Z" fill="white"/>
<path d="M182.5 0.75C182.5 0.335786 182.836 0 183.25 0C183.664 0 184 0.335786 184 0.75V4.25C184 4.66421 183.664 5 183.25 5C182.836 5 182.5 4.66421 182.5 4.25V0.75Z" fill="white"/>
<path d="M186 0.75C186 0.335786 186.336 0 186.75 0C187.164 0 187.5 0.335786 187.5 0.75V4.25C187.5 4.66421 187.164 5 186.75 5C186.336 5 186 4.66421 186 4.25V0.75Z" fill="white"/>
<path d="M189.5 0.75C189.5 0.335786 189.836 0 190.25 0C190.664 0 191 0.335786 191 0.75V4.25C191 4.66421 190.664 5 190.25 5C189.836 5 189.5 4.66421 189.5 4.25V0.75Z" fill="white"/>
<path d="M193 0.75C193 0.335786 193.336 0 193.75 0C194.164 0 194.5 0.335786 194.5 0.75V4.25C194.5 4.66421 194.164 5 193.75 5C193.336 5 193 4.66421 193 4.25V0.75Z" fill="white"/>
<path d="M196.5 0.75C196.5 0.335786 196.836 0 197.25 0C197.664 0 198 0.335786 198 0.75V4.25C198 4.66421 197.664 5 197.25 5C196.836 5 196.5 4.66421 196.5 4.25V0.75Z" fill="white"/>
<path d="M200 0.75C200 0.335786 200.336 0 200.75 0C201.164 0 201.5 0.335786 201.5 0.75V4.25C201.5 4.66421 201.164 5 200.75 5C200.336 5 200 4.66421 200 4.25V0.75Z" fill="white"/>
<path d="M203.5 0.75C203.5 0.335786 203.836 0 204.25 0C204.664 0 205 0.335786 205 0.75V4.25C205 4.66421 204.664 5 204.25 5C203.836 5 203.5 4.66421 203.5 4.25V0.75Z" fill="white"/>
<path d="M207 0.75C207 0.335786 207.336 0 207.75 0C208.164 0 208.5 0.335786 208.5 0.75V4.25C208.5 4.66421 208.164 5 207.75 5C207.336 5 207 4.66421 207 4.25V0.75Z" fill="white"/>
<path d="M210.5 0.75C210.5 0.335786 210.836 0 211.25 0C211.664 0 212 0.335786 212 0.75V4.25C212 4.66421 211.664 5 211.25 5C210.836 5 210.5 4.66421 210.5 4.25V0.75Z" fill="white"/>
<path d="M214 0.75C214 0.335786 214.336 0 214.75 0C215.164 0 215.5 0.335786 215.5 0.75V4.25C215.5 4.66421 215.164 5 214.75 5C214.336 5 214 4.66421 214 4.25V0.75Z" fill="white"/>
<path d="M217.5 0.75C217.5 0.335786 217.836 0 218.25 0C218.664 0 219 0.335786 219 0.75V4.25C219 4.66421 218.664 5 218.25 5C217.836 5 217.5 4.66421 217.5 4.25V0.75Z" fill="white"/>
<path d="M221 0.75C221 0.335786 221.336 0 221.75 0C222.164 0 222.5 0.335786 222.5 0.75V4.25C222.5 4.66421 222.164 5 221.75 5C221.336 5 221 4.66421 221 4.25V0.75Z" fill="white"/>
<path d="M224.5 0.75C224.5 0.335786 224.836 0 225.25 0C225.664 0 226 0.335786 226 0.75V4.25C226 4.66421 225.664 5 225.25 5C224.836 5 224.5 4.66421 224.5 4.25V0.75Z" fill="white"/>
<path d="M228 0.75C228 0.335786 228.336 0 228.75 0C229.164 0 229.5 0.335786 229.5 0.75V4.25C229.5 4.66421 229.164 5 228.75 5C228.336 5 228 4.66421 228 4.25V0.75Z" fill="white"/>
<path d="M231.5 0.75C231.5 0.335786 231.836 0 232.25 0C232.664 0 233 0.335786 233 0.75V4.25C233 4.66421 232.664 5 232.25 5C231.836 5 231.5 4.66421 231.5 4.25V0.75Z" fill="white"/>
<path d="M235 0.75C235 0.335786 235.336 0 235.75 0C236.164 0 236.5 0.335786 236.5 0.75V4.25C236.5 4.66421 236.164 5 235.75 5C235.336 5 235 4.66421 235 4.25V0.75Z" fill="white"/>
<path d="M238.5 0.75C238.5 0.335786 238.836 0 239.25 0C239.664 0 240 0.335786 240 0.75V4.25C240 4.66421 239.664 5 239.25 5C238.836 5 238.5 4.66421 238.5 4.25V0.75Z" fill="white"/>
<path d="M242 0.75C242 0.335786 242.336 0 242.75 0C243.164 0 243.5 0.335786 243.5 0.75V4.25C243.5 4.66421 243.164 5 242.75 5C242.336 5 242 4.66421 242 4.25V0.75Z" fill="white"/>
<path d="M245.5 0.75C245.5 0.335786 245.836 0 246.25 0C246.664 0 247 0.335786 247 0.75V4.25C247 4.66421 246.664 5 246.25 5C245.836 5 245.5 4.66421 245.5 4.25V0.75Z" fill="white"/>
<path d="M249 0.75C249 0.335786 249.336 0 249.75 0C250.164 0 250.5 0.335786 250.5 0.75V4.25C250.5 4.66421 250.164 5 249.75 5C249.336 5 249 4.66421 249 4.25V0.75Z" fill="white"/>
<path d="M252.5 0.75C252.5 0.335786 252.836 0 253.25 0C253.664 0 254 0.335786 254 0.75V4.25C254 4.66421 253.664 5 253.25 5C252.836 5 252.5 4.66421 252.5 4.25V0.75Z" fill="white"/>
<path d="M256 0.75C256 0.335786 256.336 0 256.75 0C257.164 0 257.5 0.335786 257.5 0.75V4.25C257.5 4.66421 257.164 5 256.75 5C256.336 5 256 4.66421 256 4.25V0.75Z" fill="white"/>
<path d="M259.5 0.75C259.5 0.335786 259.836 0 260.25 0C260.664 0 261 0.335786 261 0.75V4.25C261 4.66421 260.664 5 260.25 5C259.836 5 259.5 4.66421 259.5 4.25V0.75Z" fill="white"/>
<path d="M263 0.75C263 0.335786 263.336 0 263.75 0C264.164 0 264.5 0.335786 264.5 0.75V4.25C264.5 4.66421 264.164 5 263.75 5C263.336 5 263 4.66421 263 4.25V0.75Z" fill="white"/>
<path d="M266.5 0.75C266.5 0.335786 266.836 0 267.25 0C267.664 0 268 0.335786 268 0.75V4.25C268 4.66421 267.664 5 267.25 5C266.836 5 266.5 4.66421 266.5 4.25V0.75Z" fill="white"/>
<path d="M270 0.75C270 0.335786 270.336 0 270.75 0C271.164 0 271.5 0.335786 271.5 0.75V4.25C271.5 4.66421 271.164 5 270.75 5C270.336 5 270 4.66421 270 4.25V0.75Z" fill="white"/>
<path d="M273.5 0.75C273.5 0.335786 273.836 0 274.25 0C274.664 0 275 0.335786 275 0.75V4.25C275 4.66421 274.664 5 274.25 5C273.836 5 273.5 4.66421 273.5 4.25V0.75Z" fill="white"/>
<path d="M277 0.75C277 0.335786 277.336 0 277.75 0C278.164 0 278.5 0.335786 278.5 0.75V4.25C278.5 4.66421 278.164 5 277.75 5C277.336 5 277 4.66421 277 4.25V0.75Z" fill="white"/>
<path d="M280.5 0.75C280.5 0.335786 280.836 0 281.25 0C281.664 0 282 0.335786 282 0.75V4.25C282 4.66421 281.664 5 281.25 5C280.836 5 280.5 4.66421 280.5 4.25V0.75Z" fill="white"/>
<path d="M284 0.75C284 0.335786 284.336 0 284.75 0C285.164 0 285.5 0.335786 285.5 0.75V4.25C285.5 4.66421 285.164 5 284.75 5C284.336 5 284 4.66421 284 4.25V0.75Z" fill="white"/>
<path d="M287.5 0.75C287.5 0.335786 287.836 0 288.25 0C288.664 0 289 0.335786 289 0.75V4.25C289 4.66421 288.664 5 288.25 5C287.836 5 287.5 4.66421 287.5 4.25V0.75Z" fill="white"/>
<path d="M291 0.75C291 0.335786 291.336 0 291.75 0C292.164 0 292.5 0.335786 292.5 0.75V4.25C292.5 4.66421 292.164 5 291.75 5C291.336 5 291 4.66421 291 4.25V0.75Z" fill="white"/>
<path d="M294.5 0.75C294.5 0.335786 294.836 0 295.25 0C295.664 0 296 0.335786 296 0.75V4.25C296 4.66421 295.664 5 295.25 5C294.836 5 294.5 4.66421 294.5 4.25V0.75Z" fill="white"/>
<path d="M298 0.75C298 0.335786 298.336 0 298.75 0C299.164 0 299.5 0.335786 299.5 0.75V4.25C299.5 4.66421 299.164 5 298.75 5C298.336 5 298 4.66421 298 4.25V0.75Z" fill="white"/>
<path d="M301.5 0.75C301.5 0.335786 301.836 0 302.25 0C302.664 0 303 0.335786 303 0.75V4.25C303 4.66421 302.664 5 302.25 5C301.836 5 301.5 4.66421 301.5 4.25V0.75Z" fill="white"/>
<path d="M305 0.75C305 0.335786 305.336 0 305.75 0C306.164 0 306.5 0.335786 306.5 0.75V4.25C306.5 4.66421 306.164 5 305.75 5C305.336 5 305 4.66421 305 4.25V0.75Z" fill="white"/>
<path d="M308.5 0.75C308.5 0.335786 308.836 0 309.25 0C309.664 0 310 0.335786 310 0.75V4.25C310 4.66421 309.664 5 309.25 5C308.836 5 308.5 4.66421 308.5 4.25V0.75Z" fill="white"/>
<path d="M312 0.75C312 0.335786 312.336 0 312.75 0C313.164 0 313.5 0.335786 313.5 0.75V4.25C313.5 4.66421 313.164 5 312.75 5C312.336 5 312 4.66421 312 4.25V0.75Z" fill="white"/>
<path d="M315.5 0.75C315.5 0.335786 315.836 0 316.25 0C316.664 0 317 0.335786 317 0.75V4.25C317 4.66421 316.664 5 316.25 5C315.836 5 315.5 4.66421 315.5 4.25V0.75Z" fill="white"/>
<path d="M319 0.75C319 0.335786 319.336 0 319.75 0C320.164 0 320.5 0.335786 320.5 0.75V4.25C320.5 4.66421 320.164 5 319.75 5C319.336 5 319 4.66421 319 4.25V0.75Z" fill="white"/>
<path d="M322.5 0.75C322.5 0.335786 322.836 0 323.25 0C323.664 0 324 0.335786 324 0.75V4.25C324 4.66421 323.664 5 323.25 5C322.836 5 322.5 4.66421 322.5 4.25V0.75Z" fill="white"/>
<path d="M326 0.75C326 0.335786 326.336 0 326.75 0C327.164 0 327.5 0.335786 327.5 0.75V4.25C327.5 4.66421 327.164 5 326.75 5C326.336 5 326 4.66421 326 4.25V0.75Z" fill="white"/>
<path d="M329.5 0.75C329.5 0.335786 329.836 0 330.25 0C330.664 0 331 0.335786 331 0.75V4.25C331 4.66421 330.664 5 330.25 5C329.836 5 329.5 4.66421 329.5 4.25V0.75Z" fill="white"/>
<path d="M333 0.75C333 0.335786 333.336 0 333.75 0C334.164 0 334.5 0.335786 334.5 0.75V4.25C334.5 4.66421 334.164 5 333.75 5C333.336 5 333 4.66421 333 4.25V0.75Z" fill="white"/>
<path d="M336.5 0.75C336.5 0.335786 336.836 0 337.25 0C337.664 0 338 0.335786 338 0.75V4.25C338 4.66421 337.664 5 337.25 5C336.836 5 336.5 4.66421 336.5 4.25V0.75Z" fill="white"/>
<path d="M340 0.75C340 0.335786 340.336 0 340.75 0C341.164 0 341.5 0.335786 341.5 0.75V4.25C341.5 4.66421 341.164 5 340.75 5C340.336 5 340 4.66421 340 4.25V0.75Z" fill="white"/>
<path d="M343.5 0.75C343.5 0.335786 343.836 0 344.25 0C344.664 0 345 0.335786 345 0.75V4.25C345 4.66421 344.664 5 344.25 5C343.836 5 343.5 4.66421 343.5 4.25V0.75Z" fill="white"/>
<path d="M347 0.75C347 0.335786 347.336 0 347.75 0C348.164 0 348.5 0.335786 348.5 0.75V4.25C348.5 4.66421 348.164 5 347.75 5C347.336 5 347 4.66421 347 4.25V0.75Z" fill="white"/>
<path d="M350.5 0.75C350.5 0.335786 350.836 0 351.25 0C351.664 0 352 0.335786 352 0.75V4.25C352 4.66421 351.664 5 351.25 5C350.836 5 350.5 4.66421 350.5 4.25V0.75Z" fill="white"/>
<path d="M354 0.75C354 0.335786 354.336 0 354.75 0C355.164 0 355.5 0.335786 355.5 0.75V4.25C355.5 4.66421 355.164 5 354.75 5C354.336 5 354 4.66421 354 4.25V0.75Z" fill="white"/>
<path d="M357.5 0.75C357.5 0.335786 357.836 0 358.25 0C358.664 0 359 0.335786 359 0.75V4.25C359 4.66421 358.664 5 358.25 5C357.836 5 357.5 4.66421 357.5 4.25V0.75Z" fill="white"/>
<path d="M361 0.75C361 0.335786 361.336 0 361.75 0C362.164 0 362.5 0.335786 362.5 0.75V4.25C362.5 4.66421 362.164 5 361.75 5C361.336 5 361 4.66421 361 4.25V0.75Z" fill="white"/>
<path d="M364.5 0.75C364.5 0.335786 364.836 0 365.25 0C365.664 0 366 0.335786 366 0.75V4.25C366 4.66421 365.664 5 365.25 5C364.836 5 364.5 4.66421 364.5 4.25V0.75Z" fill="white"/>
<path d="M368 0.75C368 0.335786 368.336 0 368.75 0C369.164 0 369.5 0.335786 369.5 0.75V4.25C369.5 4.66421 369.164 5 368.75 5C368.336 5 368 4.66421 368 4.25V0.75Z" fill="white"/>
<path d="M371.5 0.75C371.5 0.335786 371.836 0 372.25 0C372.664 0 373 0.335786 373 0.75V4.25C373 4.66421 372.664 5 372.25 5C371.836 5 371.5 4.66421 371.5 4.25V0.75Z" fill="white"/>
<path d="M375 0.75C375 0.335786 375.336 0 375.75 0C376.164 0 376.5 0.335786 376.5 0.75V4.25C376.5 4.66421 376.164 5 375.75 5C375.336 5 375 4.66421 375 4.25V0.75Z" fill="white"/>
<path d="M378.5 0.75C378.5 0.335786 378.836 0 379.25 0C379.664 0 380 0.335786 380 0.75V4.25C380 4.66421 379.664 5 379.25 5C378.836 5 378.5 4.66421 378.5 4.25V0.75Z" fill="white"/>
<path d="M382 0.75C382 0.335786 382.336 0 382.75 0C383.164 0 383.5 0.335786 383.5 0.75V4.25C383.5 4.66421 383.164 5 382.75 5C382.336 5 382 4.66421 382 4.25V0.75Z" fill="white"/>
<path d="M385.5 0.75C385.5 0.335786 385.836 0 386.25 0C386.664 0 387 0.335786 387 0.75V4.25C387 4.66421 386.664 5 386.25 5C385.836 5 385.5 4.66421 385.5 4.25V0.75Z" fill="white"/>
<path d="M389 0.75C389 0.335786 389.336 0 389.75 0C390.164 0 390.5 0.335786 390.5 0.75V4.25C390.5 4.66421 390.164 5 389.75 5C389.336 5 389 4.66421 389 4.25V0.75Z" fill="white"/>
<path d="M392.5 0.75C392.5 0.335786 392.836 0 393.25 0C393.664 0 394 0.335786 394 0.75V4.25C394 4.66421 393.664 5 393.25 5C392.836 5 392.5 4.66421 392.5 4.25V0.75Z" fill="white"/>
<path d="M396 0.75C396 0.335786 396.336 0 396.75 0C397.164 0 397.5 0.335786 397.5 0.75V4.25C397.5 4.66421 397.164 5 396.75 5C396.336 5 396 4.66421 396 4.25V0.75Z" fill="white"/>
<path d="M399.5 0.75C399.5 0.335786 399.836 0 400.25 0C400.664 0 401 0.335786 401 0.75V4.25C401 4.66421 400.664 5 400.25 5C399.836 5 399.5 4.66421 399.5 4.25V0.75Z" fill="white"/>
<path d="M403 0.75C403 0.335786 403.336 0 403.75 0C404.164 0 404.5 0.335786 404.5 0.75V4.25C404.5 4.66421 404.164 5 403.75 5C403.336 5 403 4.66421 403 4.25V0.75Z" fill="white"/>
<path d="M406.5 0.75C406.5 0.335786 406.836 0 407.25 0C407.664 0 408 0.335786 408 0.75V4.25C408 4.66421 407.664 5 407.25 5C406.836 5 406.5 4.66421 406.5 4.25V0.75Z" fill="white"/>
<path d="M410 0.75C410 0.335786 410.336 0 410.75 0C411.164 0 411.5 0.335786 411.5 0.75V4.25C411.5 4.66421 411.164 5 410.75 5C410.336 5 410 4.66421 410 4.25V0.75Z" fill="white"/>
<path d="M413.5 0.75C413.5 0.335786 413.836 0 414.25 0C414.664 0 415 0.335786 415 0.75V4.25C415 4.66421 414.664 5 414.25 5C413.836 5 413.5 4.66421 413.5 4.25V0.75Z" fill="white"/>
<path d="M417 0.75C417 0.335786 417.336 0 417.75 0C418.164 0 418.5 0.335786 418.5 0.75V4.25C418.5 4.66421 418.164 5 417.75 5C417.336 5 417 4.66421 417 4.25V0.75Z" fill="white"/>
<path d="M420.5 0.75C420.5 0.335786 420.836 0 421.25 0C421.664 0 422 0.335786 422 0.75V4.25C422 4.66421 421.664 5 421.25 5C420.836 5 420.5 4.66421 420.5 4.25V0.75Z" fill="white"/>
<path d="M424 0.75C424 0.335786 424.336 0 424.75 0C425.164 0 425.5 0.335786 425.5 0.75V4.25C425.5 4.66421 425.164 5 424.75 5C424.336 5 424 4.66421 424 4.25V0.75Z" fill="white"/>
<path d="M427.5 0.75C427.5 0.335786 427.836 0 428.25 0C428.664 0 429 0.335786 429 0.75V4.25C429 4.66421 428.664 5 428.25 5C427.836 5 427.5 4.66421 427.5 4.25V0.75Z" fill="white"/>
<path d="M431 0.75C431 0.335786 431.336 0 431.75 0C432.164 0 432.5 0.335786 432.5 0.75V4.25C432.5 4.66421 432.164 5 431.75 5C431.336 5 431 4.66421 431 4.25V0.75Z" fill="white"/>
<path d="M434.5 0.75C434.5 0.335786 434.836 0 435.25 0C435.664 0 436 0.335786 436 0.75V4.25C436 4.66421 435.664 5 435.25 5C434.836 5 434.5 4.66421 434.5 4.25V0.75Z" fill="white"/>
<path d="M438 0.75C438 0.335786 438.336 0 438.75 0C439.164 0 439.5 0.335786 439.5 0.75V4.25C439.5 4.66421 439.164 5 438.75 5C438.336 5 438 4.66421 438 4.25V0.75Z" fill="white"/>
<path d="M441.5 0.75C441.5 0.335786 441.836 0 442.25 0C442.664 0 443 0.335786 443 0.75V4.25C443 4.66421 442.664 5 442.25 5C441.836 5 441.5 4.66421 441.5 4.25V0.75Z" fill="white"/>
<path d="M445 0.75C445 0.335786 445.336 0 445.75 0C446.164 0 446.5 0.335786 446.5 0.75V4.25C446.5 4.66421 446.164 5 445.75 5C445.336 5 445 4.66421 445 4.25V0.75Z" fill="white"/>
<path d="M448.5 0.75C448.5 0.335786 448.836 0 449.25 0C449.664 0 450 0.335786 450 0.75V4.25C450 4.66421 449.664 5 449.25 5C448.836 5 448.5 4.66421 448.5 4.25V0.75Z" fill="white"/>
<path d="M452 0.75C452 0.335786 452.336 0 452.75 0C453.164 0 453.5 0.335786 453.5 0.75V4.25C453.5 4.66421 453.164 5 452.75 5C452.336 5 452 4.66421 452 4.25V0.75Z" fill="white"/>
<path d="M455.5 0.75C455.5 0.335786 455.836 0 456.25 0C456.664 0 457 0.335786 457 0.75V4.25C457 4.66421 456.664 5 456.25 5C455.836 5 455.5 4.66421 455.5 4.25V0.75Z" fill="white"/>
<path d="M459 0.75C459 0.335786 459.336 0 459.75 0C460.164 0 460.5 0.335786 460.5 0.75V4.25C460.5 4.66421 460.164 5 459.75 5C459.336 5 459 4.66421 459 4.25V0.75Z" fill="white"/>
<path d="M462.5 0.75C462.5 0.335786 462.836 0 463.25 0C463.664 0 464 0.335786 464 0.75V4.25C464 4.66421 463.664 5 463.25 5C462.836 5 462.5 4.66421 462.5 4.25V0.75Z" fill="white"/>
<path d="M466 0.75C466 0.335786 466.336 0 466.75 0C467.164 0 467.5 0.335786 467.5 0.75V4.25C467.5 4.66421 467.164 5 466.75 5C466.336 5 466 4.66421 466 4.25V0.75Z" fill="white"/>
<path d="M469.5 0.75C469.5 0.335786 469.836 0 470.25 0C470.664 0 471 0.335786 471 0.75V4.25C471 4.66421 470.664 5 470.25 5C469.836 5 469.5 4.66421 469.5 4.25V0.75Z" fill="white"/>
<path d="M473 0.75C473 0.335786 473.336 0 473.75 0C474.164 0 474.5 0.335786 474.5 0.75V4.25C474.5 4.66421 474.164 5 473.75 5C473.336 5 473 4.66421 473 4.25V0.75Z" fill="white"/>
<path d="M476.5 0.75C476.5 0.335786 476.836 0 477.25 0C477.664 0 478 0.335786 478 0.75V4.25C478 4.66421 477.664 5 477.25 5C476.836 5 476.5 4.66421 476.5 4.25V0.75Z" fill="white"/>
<path d="M480 0.75C480 0.335786 480.336 0 480.75 0C481.164 0 481.5 0.335786 481.5 0.75V4.25C481.5 4.66421 481.164 5 480.75 5C480.336 5 480 4.66421 480 4.25V0.75Z" fill="white"/>
<path d="M483.5 0.75C483.5 0.335786 483.836 0 484.25 0C484.664 0 485 0.335786 485 0.75V4.25C485 4.66421 484.664 5 484.25 5C483.836 5 483.5 4.66421 483.5 4.25V0.75Z" fill="white"/>
<path d="M487 0.75C487 0.335786 487.336 0 487.75 0C488.164 0 488.5 0.335786 488.5 0.75V4.25C488.5 4.66421 488.164 5 487.75 5C487.336 5 487 4.66421 487 4.25V0.75Z" fill="white"/>
<path d="M490.5 0.75C490.5 0.335786 490.836 0 491.25 0C491.664 0 492 0.335786 492 0.75V4.25C492 4.66421 491.664 5 491.25 5C490.836 5 490.5 4.66421 490.5 4.25V0.75Z" fill="white"/>
<path d="M494 0.75C494 0.335786 494.336 0 494.75 0C495.164 0 495.5 0.335786 495.5 0.75V4.25C495.5 4.66421 495.164 5 494.75 5C494.336 5 494 4.66421 494 4.25V0.75Z" fill="white"/>
<path d="M497.5 0.75C497.5 0.335786 497.836 0 498.25 0C498.664 0 499 0.335786 499 0.75V4.25C499 4.66421 498.664 5 498.25 5C497.836 5 497.5 4.66421 497.5 4.25V0.75Z" fill="white"/>
<path d="M501 0.75C501 0.335786 501.336 0 501.75 0C502.164 0 502.5 0.335786 502.5 0.75V4.25C502.5 4.66421 502.164 5 501.75 5C501.336 5 501 4.66421 501 4.25V0.75Z" fill="white"/>
<path d="M504.5 0.75C504.5 0.335786 504.836 0 505.25 0C505.664 0 506 0.335786 506 0.75V4.25C506 4.66421 505.664 5 505.25 5C504.836 5 504.5 4.66421 504.5 4.25V0.75Z" fill="white"/>
<path d="M508 0.75C508 0.335786 508.336 0 508.75 0C509.164 0 509.5 0.335786 509.5 0.75V4.25C509.5 4.66421 509.164 5 508.75 5C508.336 5 508 4.66421 508 4.25V0.75Z" fill="white"/>
<path d="M511.5 0.75C511.5 0.335786 511.836 0 512.25 0C512.664 0 513 0.335786 513 0.75V4.25C513 4.66421 512.664 5 512.25 5C511.836 5 511.5 4.66421 511.5 4.25V0.75Z" fill="white"/>
<path d="M515 0.75C515 0.335786 515.336 0 515.75 0C516.164 0 516.5 0.335786 516.5 0.75V4.25C516.5 4.66421 516.164 5 515.75 5C515.336 5 515 4.66421 515 4.25V0.75Z" fill="white"/>
<path d="M518.5 0.75C518.5 0.335786 518.836 0 519.25 0C519.664 0 520 0.335786 520 0.75V4.25C520 4.66421 519.664 5 519.25 5C518.836 5 518.5 4.66421 518.5 4.25V0.75Z" fill="white"/>
<path d="M522 0.75C522 0.335786 522.336 0 522.75 0C523.164 0 523.5 0.335786 523.5 0.75V4.25C523.5 4.66421 523.164 5 522.75 5C522.336 5 522 4.66421 522 4.25V0.75Z" fill="white"/>
<path d="M525.5 0.75C525.5 0.335786 525.836 0 526.25 0C526.664 0 527 0.335786 527 0.75V4.25C527 4.66421 526.664 5 526.25 5C525.836 5 525.5 4.66421 525.5 4.25V0.75Z" fill="white"/>
<path d="M529 0.75C529 0.335786 529.336 0 529.75 0C530.164 0 530.5 0.335786 530.5 0.75V4.25C530.5 4.66421 530.164 5 529.75 5C529.336 5 529 4.66421 529 4.25V0.75Z" fill="white"/>
<path d="M532.5 0.75C532.5 0.335786 532.836 0 533.25 0C533.664 0 534 0.335786 534 0.75V4.25C534 4.66421 533.664 5 533.25 5C532.836 5 532.5 4.66421 532.5 4.25V0.75Z" fill="white"/>
<path d="M536 0.75C536 0.335786 536.336 0 536.75 0C537.164 0 537.5 0.335786 537.5 0.75V4.25C537.5 4.66421 537.164 5 536.75 5C536.336 5 536 4.66421 536 4.25V0.75Z" fill="white"/>
<path d="M539.5 0.75C539.5 0.335786 539.836 0 540.25 0C540.664 0 541 0.335786 541 0.75V4.25C541 4.66421 540.664 5 540.25 5C539.836 5 539.5 4.66421 539.5 4.25V0.75Z" fill="white"/>
<path d="M543 0.75C543 0.335786 543.336 0 543.75 0C544.164 0 544.5 0.335786 544.5 0.75V4.25C544.5 4.66421 544.164 5 543.75 5C543.336 5 543 4.66421 543 4.25V0.75Z" fill="white"/>
<path d="M546.5 0.75C546.5 0.335786 546.836 0 547.25 0C547.664 0 548 0.335786 548 0.75V4.25C548 4.66421 547.664 5 547.25 5C546.836 5 546.5 4.66421 546.5 4.25V0.75Z" fill="white"/>
<path d="M550 0.75C550 0.335786 550.336 0 550.75 0C551.164 0 551.5 0.335786 551.5 0.75V4.25C551.5 4.66421 551.164 5 550.75 5C550.336 5 550 4.66421 550 4.25V0.75Z" fill="white"/>
<path d="M553.5 0.75C553.5 0.335786 553.836 0 554.25 0C554.664 0 555 0.335786 555 0.75V4.25C555 4.66421 554.664 5 554.25 5C553.836 5 553.5 4.66421 553.5 4.25V0.75Z" fill="white"/>
<path d="M557 0.75C557 0.335786 557.336 0 557.75 0C558.164 0 558.5 0.335786 558.5 0.75V4.25C558.5 4.66421 558.164 5 557.75 5C557.336 5 557 4.66421 557 4.25V0.75Z" fill="white"/>
<path d="M560.5 0.75C560.5 0.335786 560.836 0 561.25 0C561.664 0 562 0.335786 562 0.75V4.25C562 4.66421 561.664 5 561.25 5C560.836 5 560.5 4.66421 560.5 4.25V0.75Z" fill="white"/>
<path d="M564 0.75C564 0.335786 564.336 0 564.75 0C565.164 0 565.5 0.335786 565.5 0.75V4.25C565.5 4.66421 565.164 5 564.75 5C564.336 5 564 4.66421 564 4.25V0.75Z" fill="white"/>
<path d="M567.5 0.75C567.5 0.335786 567.836 0 568.25 0C568.664 0 569 0.335786 569 0.75V4.25C569 4.66421 568.664 5 568.25 5C567.836 5 567.5 4.66421 567.5 4.25V0.75Z" fill="white"/>
<path d="M571 0.75C571 0.335786 571.336 0 571.75 0C572.164 0 572.5 0.335786 572.5 0.75V4.25C572.5 4.66421 572.164 5 571.75 5C571.336 5 571 4.66421 571 4.25V0.75Z" fill="white"/>
<path d="M574.5 0.75C574.5 0.335786 574.836 0 575.25 0C575.664 0 576 0.335786 576 0.75V4.25C576 4.66421 575.664 5 575.25 5C574.836 5 574.5 4.66421 574.5 4.25V0.75Z" fill="white"/>
<path d="M578 0.75C578 0.335786 578.336 0 578.75 0C579.164 0 579.5 0.335786 579.5 0.75V4.25C579.5 4.66421 579.164 5 578.75 5C578.336 5 578 4.66421 578 4.25V0.75Z" fill="white"/>
<path d="M581.5 0.75C581.5 0.335786 581.836 0 582.25 0C582.664 0 583 0.335786 583 0.75V4.25C583 4.66421 582.664 5 582.25 5C581.836 5 581.5 4.66421 581.5 4.25V0.75Z" fill="white"/>
<path d="M585 0.75C585 0.335786 585.336 0 585.75 0C586.164 0 586.5 0.335786 586.5 0.75V4.25C586.5 4.66421 586.164 5 585.75 5C585.336 5 585 4.66421 585 4.25V0.75Z" fill="white"/>
<path d="M588.5 0.75C588.5 0.335786 588.836 0 589.25 0C589.664 0 590 0.335786 590 0.75V4.25C590 4.66421 589.664 5 589.25 5C588.836 5 588.5 4.66421 588.5 4.25V0.75Z" fill="white"/>
<path d="M592 0.75C592 0.335786 592.336 0 592.75 0C593.164 0 593.5 0.335786 593.5 0.75V4.25C593.5 4.66421 593.164 5 592.75 5C592.336 5 592 4.66421 592 4.25V0.75Z" fill="white"/>
<path d="M595.5 0.75C595.5 0.335786 595.836 0 596.25 0C596.664 0 597 0.335786 597 0.75V4.25C597 4.66421 596.664 5 596.25 5C595.836 5 595.5 4.66421 595.5 4.25V0.75Z" fill="white"/>
<path d="M599 0.75C599 0.335786 599.336 0 599.75 0C600.164 0 600.5 0.335786 600.5 0.75V4.25C600.5 4.66421 600.164 5 599.75 5C599.336 5 599 4.66421 599 4.25V0.75Z" fill="white"/>
<path d="M602.5 0.75C602.5 0.335786 602.836 0 603.25 0C603.664 0 604 0.335786 604 0.75V4.25C604 4.66421 603.664 5 603.25 5C602.836 5 602.5 4.66421 602.5 4.25V0.75Z" fill="white"/>
<path d="M606 0.75C606 0.335786 606.336 0 606.75 0C607.164 0 607.5 0.335786 607.5 0.75V4.25C607.5 4.66421 607.164 5 606.75 5C606.336 5 606 4.66421 606 4.25V0.75Z" fill="white"/>
<path d="M609.5 0.75C609.5 0.335786 609.836 0 610.25 0C610.664 0 611 0.335786 611 0.75V4.25C611 4.66421 610.664 5 610.25 5C609.836 5 609.5 4.66421 609.5 4.25V0.75Z" fill="white"/>
<path d="M613 0.75C613 0.335786 613.336 0 613.75 0C614.164 0 614.5 0.335786 614.5 0.75V4.25C614.5 4.66421 614.164 5 613.75 5C613.336 5 613 4.66421 613 4.25V0.75Z" fill="white"/>
<path d="M616.5 0.75C616.5 0.335786 616.836 0 617.25 0C617.664 0 618 0.335786 618 0.75V4.25C618 4.66421 617.664 5 617.25 5C616.836 5 616.5 4.66421 616.5 4.25V0.75Z" fill="white"/>
<path d="M620 0.75C620 0.335786 620.336 0 620.75 0C621.164 0 621.5 0.335786 621.5 0.75V4.25C621.5 4.66421 621.164 5 620.75 5C620.336 5 620 4.66421 620 4.25V0.75Z" fill="white"/>
<path d="M623.5 0.75C623.5 0.335786 623.836 0 624.25 0C624.664 0 625 0.335786 625 0.75V4.25C625 4.66421 624.664 5 624.25 5C623.836 5 623.5 4.66421 623.5 4.25V0.75Z" fill="white"/>
<path d="M627 0.75C627 0.335786 627.336 0 627.75 0C628.164 0 628.5 0.335786 628.5 0.75V4.25C628.5 4.66421 628.164 5 627.75 5C627.336 5 627 4.66421 627 4.25V0.75Z" fill="white"/>
<path d="M630.5 0.75C630.5 0.335786 630.836 0 631.25 0C631.664 0 632 0.335786 632 0.75V4.25C632 4.66421 631.664 5 631.25 5C630.836 5 630.5 4.66421 630.5 4.25V0.75Z" fill="white"/>
<path d="M634 0.75C634 0.335786 634.336 0 634.75 0C635.164 0 635.5 0.335786 635.5 0.75V4.25C635.5 4.66421 635.164 5 634.75 5C634.336 5 634 4.66421 634 4.25V0.75Z" fill="white"/>
<path d="M637.5 0.75C637.5 0.335786 637.836 0 638.25 0C638.664 0 639 0.335786 639 0.75V4.25C639 4.66421 638.664 5 638.25 5C637.836 5 637.5 4.66421 637.5 4.25V0.75Z" fill="white"/>
<path d="M641 0.75C641 0.335786 641.336 0 641.75 0C642.164 0 642.5 0.335786 642.5 0.75V4.25C642.5 4.66421 642.164 5 641.75 5C641.336 5 641 4.66421 641 4.25V0.75Z" fill="white"/>
<path d="M644.5 0.75C644.5 0.335786 644.836 0 645.25 0C645.664 0 646 0.335786 646 0.75V4.25C646 4.66421 645.664 5 645.25 5C644.836 5 644.5 4.66421 644.5 4.25V0.75Z" fill="white"/>
<path d="M648 0.75C648 0.335786 648.336 0 648.75 0C649.164 0 649.5 0.335786 649.5 0.75V4.25C649.5 4.66421 649.164 5 648.75 5C648.336 5 648 4.66421 648 4.25V0.75Z" fill="white"/>
<path d="M651.5 0.75C651.5 0.335786 651.836 0 652.25 0C652.664 0 653 0.335786 653 0.75V4.25C653 4.66421 652.664 5 652.25 5C651.836 5 651.5 4.66421 651.5 4.25V0.75Z" fill="white"/>
<path d="M655 0.75C655 0.335786 655.336 0 655.75 0C656.164 0 656.5 0.335786 656.5 0.75V4.25C656.5 4.66421 656.164 5 655.75 5C655.336 5 655 4.66421 655 4.25V0.75Z" fill="white"/>
<path d="M658.5 0.75C658.5 0.335786 658.836 0 659.25 0C659.664 0 660 0.335786 660 0.75V4.25C660 4.66421 659.664 5 659.25 5C658.836 5 658.5 4.66421 658.5 4.25V0.75Z" fill="white"/>
<path d="M662 0.75C662 0.335786 662.336 0 662.75 0C663.164 0 663.5 0.335786 663.5 0.75V4.25C663.5 4.66421 663.164 5 662.75 5C662.336 5 662 4.66421 662 4.25V0.75Z" fill="white"/>
<path d="M665.5 0.75C665.5 0.335786 665.836 0 666.25 0C666.664 0 667 0.335786 667 0.75V4.25C667 4.66421 666.664 5 666.25 5C665.836 5 665.5 4.66421 665.5 4.25V0.75Z" fill="white"/>
<path d="M669 0.75C669 0.335786 669.336 0 669.75 0C670.164 0 670.5 0.335786 670.5 0.75V4.25C670.5 4.66421 670.164 5 669.75 5C669.336 5 669 4.66421 669 4.25V0.75Z" fill="white"/>
<path d="M672.5 0.75C672.5 0.335786 672.836 0 673.25 0C673.664 0 674 0.335786 674 0.75V4.25C674 4.66421 673.664 5 673.25 5C672.836 5 672.5 4.66421 672.5 4.25V0.75Z" fill="white"/>
<path d="M676 0.75C676 0.335786 676.336 0 676.75 0C677.164 0 677.5 0.335786 677.5 0.75V4.25C677.5 4.66421 677.164 5 676.75 5C676.336 5 676 4.66421 676 4.25V0.75Z" fill="white"/>
<path d="M679.5 0H685.5V5H679.5V0Z" fill="white"/>
</g>
<defs>
<filter id="filter0_d_193_501" x="-3" y="0" width="714.5" height="17" filterUnits="userSpaceOnUse" color-interpolation-filters="sRGB">
<feFlood flood-opacity="0" result="BackgroundImageFix"/>
<feColorMatrix in="SourceAlpha" type="matrix" values="0 0 0 0 0 0 0 0 0 0 0 0 0 0 0 0 0 0 127 0" result="hardAlpha"/>
<feOffset dx="26" dy="12"/>
<feComposite in2="hardAlpha" operator="out"/>
<feColorMatrix type="matrix" values="0 0 0 0 1 0 0 0 0 1 0 0 0 0 1 0 0 0 0.25 0"/>
<feBlend mode="normal" in2="BackgroundImageFix" result="effect1_dropShadow_193_501"/>
<feBlend mode="normal" in="SourceGraphic" in2="effect1_dropShadow_193_501" result="shape"/>
</filter>
</defs>
</svg>
