<svg width="173" height="36" viewBox="0 0 173 36" fill="none" xmlns="http://www.w3.org/2000/svg">
<path d="M25.6032 30.964C26.1434 31.4708 26.4139 32.025 26.4139 32.6268C26.4139 33.2286 26.1754 33.7512 25.6985 34.1946C25.2537 34.638 24.7291 34.8598 24.1248 34.8598C23.5206 34.8598 22.9646 34.6064 22.4557 34.0996L5.47882 18.849V32.4368C5.47882 33.1969 5.25625 33.7987 4.81119 34.2421C4.39787 34.6856 3.79386 34.9073 2.99904 34.9073C2.26785 34.9073 1.67965 34.6856 1.23459 34.2421C0.789522 33.7987 0.566956 33.1969 0.566956 32.4368V3.40826C0.566956 2.67979 0.789522 2.09379 1.23459 1.65039C1.67965 1.17529 2.26785 0.937744 2.99904 0.937744C3.76205 0.937744 4.36612 1.15948 4.81119 1.60288C5.25625 2.04628 5.47882 2.6481 5.47882 3.40826V16.426L21.7404 1.65039C22.1853 1.20699 22.7099 0.985254 23.3141 0.985254C23.9184 0.985254 24.443 1.20699 24.8878 1.65039C25.3327 2.09379 25.5555 2.60059 25.5555 3.17071C25.5555 3.77252 25.285 4.32676 24.7448 4.83355L10.5337 17.4712L25.6032 30.964Z" fill="white"/>
<path d="M77.6449 36C75.2285 36 72.9238 35.6674 70.7302 35.0023C68.5685 34.3372 66.8354 33.4186 65.5322 32.2467C64.9279 31.7399 64.6261 31.0907 64.6261 30.2988C64.6261 29.7287 64.7848 29.2536 65.103 28.8735C65.4211 28.4617 65.8026 28.2559 66.2475 28.2559C66.6923 28.2559 67.2333 28.4617 67.8689 28.8735C70.6981 30.9639 73.9253 32.0092 77.5495 32.0092C80.0927 32.0092 82.0479 31.5341 83.4152 30.5839C84.7825 29.6337 85.4658 28.2717 85.4658 26.498C85.4658 25.1044 84.8301 24.0592 83.5582 23.3624C82.2863 22.6655 80.2521 22.0004 77.4542 21.367C74.7836 20.7968 72.59 20.1475 70.8732 19.4191C69.1565 18.6906 67.8055 17.7087 66.8197 16.4734C65.866 15.2065 65.3891 13.607 65.3891 11.675C65.3891 9.74286 65.9137 8.03251 66.9628 6.54389C68.044 5.02357 69.538 3.85164 71.4455 3.02816C73.353 2.17298 75.531 1.74539 77.9787 1.74539C80.2357 1.74539 82.3183 2.06215 84.2259 2.69559C86.1334 3.32903 87.7548 4.26342 89.09 5.49867C89.7257 6.03709 90.0438 6.68642 90.0438 7.44657C90.0438 7.985 89.8687 8.46009 89.5192 8.87187C89.2011 9.28364 88.8196 9.4895 88.3747 9.4895C87.9612 9.4895 87.4366 9.28364 86.801 8.87187C85.3384 7.76333 83.9554 6.97148 82.6522 6.49638C81.3803 5.98958 79.8386 5.73622 78.0264 5.73622C75.5787 5.73622 73.6711 6.24301 72.3039 7.25654C70.9366 8.23843 70.2533 9.61621 70.2533 11.3899C70.2533 12.9102 70.8576 14.0663 72.0654 14.8581C73.2733 15.6183 75.2128 16.3151 77.8834 16.9485C80.6813 17.582 82.9383 18.2471 84.6551 18.944C86.4039 19.6091 87.7868 20.5435 88.8039 21.747C89.8531 22.919 90.3776 24.4393 90.3776 26.308C90.3776 28.2084 89.8374 29.9029 88.7562 31.3915C87.7071 32.8485 86.2131 33.9888 84.2736 34.8122C82.366 35.6041 80.1567 36 77.6449 36Z" fill="white"/>
<path d="M33.3936 3.61866C33.3936 2.47537 34.3242 1.54858 35.4714 1.54858H55.5685C56.7158 1.54858 57.6463 2.47537 57.6463 3.61866C57.6463 4.76195 56.7158 5.68873 55.5685 5.68873H35.4714C34.3242 5.68873 33.3936 4.76195 33.3936 3.61866Z" fill="white"/>
<path d="M33.3936 18.1431C33.3936 16.9998 34.3242 16.073 35.4714 16.073H55.5685C56.7158 16.073 57.6463 16.9998 57.6463 18.1431C57.6463 19.2864 56.7158 20.2131 55.5685 20.2131H35.4714C34.3242 20.2131 33.3936 19.2864 33.3936 18.1431Z" fill="white"/>
<path d="M33.3936 32.6675C33.3936 31.5242 34.3242 30.5974 35.4714 30.5974H55.5685C56.7158 30.5974 57.6463 31.5242 57.6463 32.6675C57.6463 33.8108 56.7158 34.7376 55.5685 34.7376H35.4714C34.3242 34.7376 33.3936 33.8108 33.3936 32.6675Z" fill="white"/>
<path d="M99.3806 14.3442V24.3666H101.242V19.5845L104.879 24.3666H107.241L102.888 18.8257L106.955 14.3442H104.664L101.242 18.0668V14.3442H99.3806Z" fill="white"/>
<path d="M110.161 24.3666H112.022V19.8708H116.031V24.3666H117.892V14.3442H116.031V18.1527H112.022V14.3442H110.161V24.3666Z" fill="white"/>
<path d="M127.514 24.3666H129.518L126.125 14.3442H124.264L120.871 24.3666H122.875L123.605 22.0042H126.784L127.514 24.3666ZM125.194 16.8069L126.254 20.2861H124.135L125.194 16.8069Z" fill="white"/>
<path d="M136.34 20.4436C138.459 20.4436 139.476 19.1406 139.476 17.3939C139.476 15.6471 138.459 14.3442 136.34 14.3442H132.56V24.3666H134.421V20.4436H136.34ZM136.268 18.7254H134.421V16.0624H136.268C137.084 16.0624 137.586 16.4776 137.586 17.3939C137.586 18.3102 137.084 18.7254 136.268 18.7254Z" fill="white"/>
<path d="M142.362 16.0624H145.14V24.3666H147.001V16.0624H149.779V14.3442H142.362V16.0624Z" fill="white"/>
<path d="M157.841 24.3666H159.846L156.452 14.3442H154.591L151.198 24.3666H153.202L153.932 22.0042H157.111L157.841 24.3666ZM155.522 16.8069L156.581 20.2861H154.462L155.522 16.8069Z" fill="white"/>
<path d="M166.023 24.3666C168.385 24.3666 170.69 22.8632 170.69 19.3554C170.69 15.8476 168.385 14.3442 166.023 14.3442H162.887V24.3666H166.023ZM164.749 22.6485V16.0624H165.436C167.039 16.0624 168.8 16.6923 168.8 19.3554C168.8 22.0185 167.039 22.6485 165.436 22.6485H164.749Z" fill="white"/>
<path d="M98.7949 28.0111V33.4778H102.255V32.5407H99.8102V31.0334H101.708V30.0962H99.8102V28.9482H102.176V28.0111H98.7949Z" fill="white"/>
<path d="M107.046 28.0111V31.6191L105.039 28.0111H103.969V33.4778H104.984V29.8698L106.991 33.4778H108.061V28.0111H107.046Z" fill="white"/>
<path d="M113.811 33.4778H114.662V30.721H112.663V31.5645H113.678C113.616 32.0565 113.256 32.6031 112.452 32.6031C111.601 32.6031 110.906 32.0565 110.906 30.7444C110.906 29.4715 111.601 28.8858 112.475 28.8858C113.139 28.8858 113.561 29.2919 113.819 29.9166L114.748 29.6745C114.467 28.6749 113.694 27.9486 112.475 27.9486C111.124 27.9486 109.875 28.8779 109.875 30.7444C109.875 32.6109 111.077 33.5403 112.397 33.5403C113.1 33.5403 113.514 33.2123 113.725 32.8921L113.811 33.4778Z" fill="white"/>
<path d="M116.589 28.0111V33.4778H119.924V32.5407H117.605V28.0111H116.589Z" fill="white"/>
<path d="M122.633 28.0111H121.618V33.4778H122.633V28.0111Z" fill="white"/>
<path d="M127.693 28.9404C127.396 28.3078 126.842 27.9486 126.115 27.9486C125.256 27.9486 124.624 28.6046 124.624 29.4324C124.624 31.1662 126.912 30.9865 126.912 31.8925C126.912 32.3923 126.623 32.6031 126.201 32.6031C125.608 32.6031 125.28 32.0799 125.116 31.4942L124.296 32.0096C124.468 32.8452 125.186 33.5403 126.178 33.5403C127.224 33.5403 127.927 32.9077 127.927 31.8378C127.927 30.2134 125.592 30.3383 125.592 29.3856C125.592 29.0966 125.819 28.8858 126.115 28.8858C126.436 28.8858 126.662 29.0576 126.873 29.4637L127.693 28.9404Z" fill="white"/>
<path d="M129.609 33.4778H130.625V31.0256H132.811V33.4778H133.827V28.0111H132.811V30.0884H130.625V28.0111H129.609V33.4778Z" fill="white"/>
<path d="M141.697 28.9404C141.4 28.3078 140.846 27.9486 140.119 27.9486C139.26 27.9486 138.628 28.6046 138.628 29.4324C138.628 31.1662 140.916 30.9865 140.916 31.8925C140.916 32.3923 140.627 32.6031 140.205 32.6031C139.612 32.6031 139.284 32.0799 139.12 31.4942L138.3 32.0096C138.472 32.8452 139.19 33.5403 140.182 33.5403C141.228 33.5403 141.931 32.9077 141.931 31.8378C141.931 30.2134 139.596 30.3383 139.596 29.3856C139.596 29.0966 139.823 28.8858 140.119 28.8858C140.44 28.8858 140.666 29.0576 140.877 29.4637L141.697 28.9404Z" fill="white"/>
<path d="M148.28 29.6042C148.022 28.5578 147.202 27.9486 146.015 27.9486C144.649 27.9486 143.43 28.917 143.43 30.7444C143.43 32.5719 144.649 33.5403 146.015 33.5403C147.202 33.5403 148.022 32.9311 148.28 31.8847L147.366 31.6504C147.155 32.2048 146.773 32.6031 146.015 32.6031C145.172 32.6031 144.461 32.0096 144.461 30.7444C144.461 29.4793 145.172 28.8858 146.015 28.8858C146.773 28.8858 147.155 29.284 147.366 29.8385L148.28 29.6042Z" fill="white"/>
<path d="M149.954 33.4778H150.969V31.0256H153.156V33.4778H154.171V28.0111H153.156V30.0884H150.969V28.0111H149.954V33.4778Z" fill="white"/>
<path d="M158.552 27.9486C157.169 27.9486 155.974 28.8467 155.974 30.7444C155.974 32.6422 157.169 33.5403 158.552 33.5403C159.934 33.5403 161.129 32.6422 161.129 30.7444C161.129 28.8467 159.934 27.9486 158.552 27.9486ZM158.552 28.8858C159.372 28.8858 160.098 29.4481 160.098 30.7444C160.098 32.0408 159.372 32.6031 158.552 32.6031C157.732 32.6031 157.005 32.0408 157.005 30.7444C157.005 29.4481 157.732 28.8858 158.552 28.8858Z" fill="white"/>
<path d="M165.327 27.9486C163.945 27.9486 162.75 28.8467 162.75 30.7444C162.75 32.6422 163.945 33.5403 165.327 33.5403C166.709 33.5403 167.904 32.6422 167.904 30.7444C167.904 28.8467 166.709 27.9486 165.327 27.9486ZM165.327 28.8858C166.147 28.8858 166.873 29.4481 166.873 30.7444C166.873 32.0408 166.147 32.6031 165.327 32.6031C164.507 32.6031 163.781 32.0408 163.781 30.7444C163.781 29.4481 164.507 28.8858 165.327 28.8858Z" fill="white"/>
<path d="M169.594 28.0111V33.4778H172.929V32.5407H170.609V28.0111H169.594Z" fill="white"/>
</svg>
